<?xml version="1.0" encoding="utf-8"?>
<!-- Generator: Adobe Illustrator 25.4.1, SVG Export Plug-In . SVG Version: 6.00 Build 0)  -->
<svg version="1.1" id="Layer_1" xmlns="http://www.w3.org/2000/svg" xmlns:xlink="http://www.w3.org/1999/xlink" x="0px" y="0px"
	 viewBox="0 0 352.6 359.4" style="enable-background:new 0 0 352.6 359.4;" xml:space="preserve">
<style type="text/css">
	.st0{fill:#12100B;}
	.st1{fill:url(#SVGID_1_);}
	.st2{fill:url(#SVGID_00000042005291975888239340000012632803041024511165_);}
	.st3{fill:#CE212A;}
	.st4{fill:#FFFFFF;}
</style>
<g>
	<polygon class="st0" points="63.7,255.2 42.1,263.7 41.9,263.4 53.6,246 32.7,247.3 32.5,247 50.8,232.7 51.9,234.6 38.8,244.8 
		57.1,243.7 57.4,244.2 47.1,259.5 62.6,253.3 	"/>
	<path class="st0" d="M26.3,226.8c0.5,1.6,1.5,3,2.8,4.2c1.3,1.1,2.8,1.9,4.5,2.2s3.5,0.2,5.2-0.4c5.1-1.7,7.8-7.1,6.2-12.2v-0.1
		c-0.5-1.6-1.5-3.1-2.8-4.3c-1.3-1.1-2.8-1.9-4.5-2.2s-3.5-0.2-5.1,0.4c-1.6,0.5-3.1,1.5-4.3,2.8c-1.1,1.3-1.9,2.8-2.2,4.5
		C25.6,223.4,25.7,225.1,26.3,226.8 M24.2,227.6c-1.1-3.1-0.9-6.5,0.5-9.4s3.9-5.1,7-6.1c3-1.1,6.4-0.9,9.2,0.6
		c2.9,1.4,5.1,3.9,6.1,7c1.1,3,0.9,6.4-0.6,9.3c-1.4,2.9-3.9,5.1-6.9,6c-2,0.7-4.2,0.9-6.3,0.4C29,234.7,25.5,231.7,24.2,227.6"/>
	<path class="st0" d="M21.5,206.8l7.7-1.3l-0.6-3.8c-0.1-1.2-0.5-2.3-1-3.3c-0.4-0.7-1-1.2-1.6-1.5c-0.7-0.3-1.5-0.4-2.2-0.3
		c-0.7,0.1-1.4,0.5-2,1c-0.5,0.5-0.9,1.1-1.1,1.8c-0.1,1.1-0.1,2.3,0.2,3.4L21.5,206.8z M19.7,209.5l-0.8-4.5
		c-0.4-1.7-0.5-3.5-0.5-5.3c0.1-1.3,0.6-2.5,1.4-3.5c0.9-1,2.2-1.7,3.5-1.9c1.3-0.3,2.7-0.1,3.9,0.6c1.2,0.7,2,1.7,2.5,3
		c0.6,1.9,1.1,3.8,1.3,5.7l0.3,1.6l10.5-1.8l0.4,2.3L19.7,209.5z"/>
	<path class="st0" d="M21.3,179.9l8.2-4.1l0.2,7.9L21.3,179.9z M16.4,179.7v0.6l23.2,10.3l-0.1-2.6l-7.6-3.4l-0.2-9.9l7.5-3.8
		l-0.1-2.5L16.4,179.7z"/>
	<polygon class="st0" points="41.9,148.2 41.6,150.7 23,155.9 39.6,165.9 39.2,168.4 17.8,155.5 17.8,155 	"/>
	<polygon class="st0" points="50.6,121.3 49.8,123.5 33.2,117.5 44.6,137.8 44.5,138.3 22.9,130.4 23.6,128.3 40.5,134.4 
		28.8,113.9 29,113.4 	"/>
	<polygon class="st0" points="32.1,106.8 33.2,104.8 41.7,109.4 47.3,99.2 38.9,94.5 40,92.5 60.1,103.6 59,105.6 49.3,100.2 
		43.6,110.5 53.4,115.8 52.2,117.8 	"/>
	<polygon class="st0" points="73.2,86 71.7,87.9 57.8,77.1 62.5,99.9 62.2,100.3 44,86.3 45.4,84.4 59.6,95.4 54.7,72.4 55,72 	"/>
	<polygon class="st0" points="88.1,71.5 75.8,83.2 60,66.5 61.6,64.9 76,80 83.7,72.7 69.4,57.6 71,56 85.3,71.1 88.2,68.4 92,72.5 
		90.5,73.9 	"/>
	<polygon class="st0" points="106,58.7 104,60.1 94,45.6 91.5,68.7 91.1,69 78.1,50.1 80,48.8 90.1,63.5 92.5,40.1 92.9,39.8 	"/>
	<path class="st0" d="M109.7,36.6v9.2l7.1-3.4L109.7,36.6z M107.9,32.1l19.5,16.2l-2.2,1.1l-6.5-5.3l-8.9,4.2v8.4l-2.3,1.1V32.4
		L107.9,32.1z"/>
	<polygon class="st0" points="120.9,28.9 120.2,26.7 132.2,22.8 132.9,24.9 128,26.5 134.5,46.2 132.3,47 125.8,27.3 	"/>
	<polygon class="st0" points="158.9,40.6 156.5,41 153.2,23.7 141.6,43.9 141.1,44 136.8,21.4 139,21 142.4,38.6 154,18.1 154.5,18 
			"/>
	<path class="st0" d="M164.6,29.2L165,38l2.8-0.1c1.3,0,2.5-0.2,3.7-0.7c0.8-0.4,1.4-0.9,1.8-1.6c1-1.6,0.8-3.6-0.5-4.9
		c-0.8-0.8-1.8-1.3-2.8-1.4c-1.4-0.2-2.7-0.2-4.1-0.1L164.6,29.2z M164.1,19.5l0.4,7.3l1.3-0.1c1.2,0,2.4-0.2,3.5-0.6
		c0.7-0.3,1.3-0.8,1.7-1.5c0.4-0.6,0.6-1.4,0.6-2.2c0-1-0.5-1.8-1.2-2.4c-1.1-0.6-2.3-0.9-3.6-0.7L164.1,19.5z M161.8,17.4l4.5-0.2
		c1.4-0.1,2.9,0,4.2,0.4c1,0.4,1.8,1,2.4,1.9c0.6,0.9,1,1.9,1,2.9c0.1,1-0.2,2-0.6,2.8c-0.5,0.9-1.2,1.6-2.1,2.1
		c1,0.3,2,0.7,2.8,1.3c0.7,0.5,1.2,1.2,1.6,1.9c0.4,0.8,0.6,1.6,0.7,2.5c0.1,1.8-0.5,3.5-1.8,4.8c-1.4,1.4-3.3,2.2-5.3,2.2l-6.3,0.3
		L161.8,17.4z"/>
	<polygon class="st0" points="181.6,16.8 179.6,39.6 181.9,39.8 182.8,28.8 194.5,29.8 193.6,40.8 195.8,41 197.8,18.1 195.5,17.9 
		194.7,27.5 183,26.6 183.9,17 	"/>
	<path class="st0" d="M215.6,23.5c-3.4-0.8-6.9,0.2-9.4,2.6c-1.2,1.3-2.1,2.8-2.5,4.5c-0.7,2.5-0.3,5.2,1,7.4s3.4,3.8,5.9,4.4
		c1.7,0.4,3.4,0.4,5.1,0c1.6-0.4,3.1-1.3,4.3-2.5c1.2-1.3,2.1-2.8,2.5-4.5c0.5-1.7,0.5-3.4,0-5.1c-0.5-1.6-1.4-3.1-2.6-4.3
		C218.8,24.9,217.3,24,215.6,23.5 M216.1,21.4c3.2,0.7,5.9,2.7,7.6,5.6c1.7,2.8,2.1,6.1,1.3,9.2c-1.7,6.5-8.4,10.3-14.9,8.6
		c-3.1-0.8-5.7-2.8-7.3-5.5c-1.7-2.7-2.1-6-1.3-9.1c0.5-2.1,1.6-4,3.1-5.5C207.5,21.5,211.9,20.3,216.1,21.4"/>
	<path class="st0" d="M251.6,40.4l-2.2,0.5c-0.3-1.5-1-3-2-4.2s-2.3-2.2-3.8-2.9c-1.6-0.8-3.4-1.1-5.2-1c-1.7,0.1-3.4,0.7-4.8,1.7
		c-1.4,1-2.6,2.4-3.3,4c-1.2,2.4-1.3,5.1-0.4,7.6c1,2.5,2.9,4.6,5.4,5.6c2.8,1.4,6.1,1.4,8.9,0l1.1,2c-1.6,0.8-3.5,1.3-5.3,1.3
		c-2,0-3.9-0.5-5.7-1.3c-3.3-1.4-5.9-4.2-6.9-7.7c-0.8-2.9-0.5-6,0.8-8.7c1.3-2.9,3.8-5.2,6.8-6.2c3.1-1.1,6.5-0.9,9.5,0.6
		c1.8,0.8,3.5,2.1,4.7,3.6C250.5,36.8,251.3,38.5,251.6,40.4"/>
	<polygon class="st0" points="255.5,40.6 256.7,38.7 267.3,45.5 266.1,47.4 261.8,44.6 250.6,62 248.6,60.8 259.8,43.3 	"/>
	<path class="st0" d="M285.6,63.6L280,69l2.7,2.8c0.8,0.9,1.7,1.6,2.7,2.2c0.7,0.3,1.5,0.4,2.2,0.3s1.4-0.5,2-1
		c0.5-0.5,0.9-1.2,1.1-1.9c0.2-0.7,0.1-1.5-0.2-2.1c-0.5-1-1.2-1.9-2-2.7L285.6,63.6z M285.6,60.4l3.2,3.3c1.3,1.2,2.4,2.6,3.5,4
		c0.7,1.1,1,2.4,0.8,3.7c-0.5,2.8-2.6,4.9-5.4,5.3c-1.3,0.1-2.7-0.3-3.8-1c-1.6-1.2-3-2.5-4.3-3.9l-1.1-1.2l-7.7,7.4l-1.6-1.6
		L285.6,60.4z"/>
	<path class="st0" d="M305,85.5c-1-1.4-2.3-2.5-3.9-3.2s-3.3-1-5-0.8s-3.4,0.8-4.8,1.8c-4.4,3-5.5,9-2.4,13.4c0,0,0,0.1,0.1,0.1
		c1,1.4,2.3,2.6,3.9,3.3c1.5,0.7,3.2,1,4.9,0.9c1.7-0.2,3.4-0.8,4.8-1.8s2.6-2.3,3.3-3.9c0.7-1.5,1-3.3,0.8-5
		C306.6,88.5,306,86.9,305,85.5 M306.7,84.1c2,2.6,2.7,5.9,2.2,9.1s-2.3,6-5,7.8c-5.5,3.8-13.1,2.5-16.9-3c-1.8-2.6-2.5-5.8-2-8.9
		s2.3-5.9,4.9-7.7c1.8-1.2,3.8-2,5.9-2.2C300.1,78.7,304.3,80.6,306.7,84.1"/>
	<path class="st0" d="M298.5,111l6,12.7l11.5-13.4L298.5,111z M292.5,111.4l-1-2l5-2.4l0.8,1.7L320,108l0.3,0.7l-14.8,17.5l0.8,1.6
		l-5,2.4l-1-2l3.1-1.5l-7.9-16.7L292.5,111.4z"/>
	<path class="st0" d="M328.3,135c-0.9-3.3-3.6-5.9-6.9-6.8c-1.7-0.4-3.5-0.4-5.2,0.1c-5.2,1.4-8.3,6.6-6.9,11.8v0.1
		c0.4,1.7,1.3,3.2,2.5,4.4s2.7,2.1,4.4,2.5c1.7,0.4,3.5,0.4,5.2-0.1c1.7-0.4,3.2-1.3,4.4-2.5c1.2-1.2,2.1-2.7,2.5-4.4
		C328.8,138.5,328.8,136.7,328.3,135 M330.5,134.4c0.9,3.1,0.5,6.5-1.1,9.3c-3.3,5.8-10.7,7.8-16.5,4.5c-2.8-1.6-4.9-4.3-5.7-7.4
		c-0.9-3.1-0.5-6.4,1.1-9.2c1.5-2.8,4.2-4.8,7.3-5.6c2.1-0.6,4.3-0.6,6.3-0.1C326.1,127,329.3,130.2,330.5,134.4"/>
	<polygon class="st0" points="312.8,173.6 312.6,171.1 329.5,161.8 311.2,155.8 310.9,153.3 334.7,161.1 334.8,161.6 	"/>
	<path class="st0" d="M321.9,204.3c2.6,0.3,5.3-0.5,7.3-2.2c2-1.6,3.2-4,3.4-6.5c0.5-5.4-3.5-10.1-8.9-10.6c0,0,0,0-0.1,0
		c-2.6-0.3-5.2,0.5-7.2,2.2c-4.1,3.4-4.7,9.5-1.3,13.7C316.9,202.9,319.3,204.1,321.9,204.3 M325.7,178.8l-0.4,4
		c3.6,0.9,6.2,2.7,7.7,5.2c1.5,2.3,2.2,5,1.9,7.7c-0.2,3.3-1.8,6.3-4.3,8.3c-5.1,4.3-12.7,3.5-17-1.6c-2.1-2.5-3-5.7-2.7-8.9
		c0.5-6.3,5.9-11.2,12.3-10.9l0.4-4l-10.5-1l0.2-2.3l22.9,2.2l-0.2,2.3L325.7,178.8z"/>
	<path class="st0" d="M319,213.2l-8.5-2.4l-0.8,2.7c-0.4,1.2-0.6,2.4-0.5,3.7c0.1,0.8,0.4,1.6,0.9,2.2c0.5,0.6,1.2,1.1,2,1.3
		c0.9,0.3,2,0.2,2.9-0.2s1.6-1.1,2.1-2c0.7-1.3,1.2-2.7,1.5-4.1L319,213.2z M309,207.9l22.1,6.3l-3.2,11.1l-2.2-0.6l2.5-8.9l-7.1-2
		l-0.3,1c-0.5,2.1-1.3,4-2.4,5.8c-0.8,1.1-1.9,1.9-3.1,2.3c-3,1-6.2-0.3-7.7-3.1c-0.9-1.8-1.1-3.9-0.4-5.8L309,207.9z"/>
	<polygon class="st0" points="296.9,240.5 297.8,238.3 313.9,245.5 304.1,224.5 304.3,224 325.2,233.4 324.3,235.5 307.9,228.2 
		318,249.4 317.8,249.9 	"/>
	<polygon class="st0" points="314.2,256.1 307.2,267.3 305.3,266.1 311.1,256.9 305,253 299.3,262.2 297.4,261 303.1,251.9 
		295.5,247.1 289.7,256.2 287.8,255 294.8,243.9 	"/>
	<path class="st0" d="M84.7,283.4c3,2.6,3.4,7.1,0.8,10.1l0,0c-2.6,3-7.1,3.4-10.1,0.8s-3.4-7.1-0.8-10.1
		C77.2,281.2,81.7,280.8,84.7,283.4"/>
	<polygon class="st0" points="102.5,285.4 124.3,297.2 107.8,327.5 102,324.3 115.5,299.5 105.4,293.9 91.9,318.8 86,315.6 	"/>
	<polygon class="st0" points="128.1,298.8 151.9,305.6 142.5,338.7 136.1,336.9 143.9,309.7 132.8,306.5 125,333.8 118.6,331.9 	"/>
	<polygon class="st0" points="193,306.3 186.6,330.8 177,307.4 170.6,307.8 167,342.6 173.4,342.2 175.7,320.2 184.4,341.4 
		190.2,341.1 196,318.8 201.2,340.3 207.5,339.9 199.4,305.9 	"/>
	<polygon class="st0" points="229.7,296.3 240.7,329 234.5,331.1 227.6,310.6 222.3,335.2 216.9,337 205.9,304.4 212.1,302.3 
		219.2,323.4 224.4,298.1 	"/>
	<path class="st0" d="M246,302.5l1.8-1.1c1-0.5,2-1.2,2.8-2c0.4-0.5,0.7-1.1,0.7-1.8c0-0.7-0.1-1.4-0.5-2c-0.5-1.1-1.6-1.7-2.8-1.7
		c-1.4,0.2-2.8,0.7-3.9,1.5l-1.6,0.9L246,302.5z M233.6,294.2l6-3.5c3.2-1.9,5.8-3,7.6-3.2s3.5,0.1,5.1,0.9c1.7,1,3.1,2.4,4.1,4.1
		c1.2,1.8,1.7,4,1.4,6.1c-0.3,2.1-1.3,4-2.7,5.5c-1.7,1.5-3.6,2.9-5.7,4l7.4,12.6l-5.7,3.3L233.6,294.2z"/>
	<path class="st0" d="M268.2,282.5c3-2.6,7.5-2.3,10.2,0.7c2.6,3,2.3,7.5-0.7,10.2c-3,2.6-7.5,2.3-10.2-0.7
		c-1.3-1.4-1.9-3.3-1.8-5.2C265.8,285.5,266.7,283.7,268.2,282.5"/>
	
		<linearGradient id="SVGID_1_" gradientUnits="userSpaceOnUse" x1="100.2236" y1="174.0977" x2="227.1725" y2="174.0977" gradientTransform="matrix(1 0 0 -1 0 360.2362)">
		<stop  offset="0" style="stop-color:#009168"/>
		<stop  offset="0.575" style="stop-color:#007B57"/>
		<stop  offset="1" style="stop-color:#006748"/>
	</linearGradient>
	<path class="st1" d="M220.8,180.6c-29.8-30.9-93.8-14-116.5-60.5c-17.1,67.8,23.9,94.5,43.5,105.3C137,238,126,244.7,102.3,245.6
		c24.9,8.6,58.2,8.8,81.5,0.4c13.9-9.6,21.7-11.5,26.1-19.6c5.5-3.4,6.3-12.6,12.3-18.6C230.7,199.1,227,187,220.8,180.6z"/>
	
		<linearGradient id="SVGID_00000039098576797731219050000005704435761504922759_" gradientUnits="userSpaceOnUse" x1="172.7257" y1="198.8546" x2="217.7783" y2="214.5587" gradientTransform="matrix(1 0 0 -1 0 360.2362)">
		<stop  offset="0" style="stop-color:#009168"/>
		<stop  offset="0.1309" style="stop-color:#00855F"/>
		<stop  offset="0.381" style="stop-color:#007452"/>
		<stop  offset="0.6558" style="stop-color:#006A4A"/>
		<stop  offset="1" style="stop-color:#006748"/>
	</linearGradient>
	<path style="fill:url(#SVGID_00000039098576797731219050000005704435761504922759_);" d="M222.5,218.2
		c-11,13.2-24.2,22.3-38.7,27.8c27.9-14.8,12.8-39.4-11-62.7c-24.1-23.6-44.8-56.5-19-103.8c2,11.9,9.5,15.8,16.7,22.2
		c-8.1,34.8,7.7,62.6,27.2,81.6C209.6,195.1,219.4,207.2,222.5,218.2z"/>
	<path class="st3" d="M269.2,140.8c-2.3,0.2-4.9,0.8-7.5,2.1c-3.3,1.6-6.6,4.3-9.1,8.3c-1.5,2.5-2.8,5.4-3.5,9
		c-5.3,24.5-14.6,43.7-26.6,58.1c-3.2-11-13-23.1-25-34.8c-19.4-19-35.3-46.8-27.2-81.6c15,13.4,37.7,19.6,52.3,40.4
		c3.5,5.5,7.5,12,10.5,23.3c0.4-3.4,0.5-6.8,0.2-10c-0.7-8,3.7-14.9,10.1-18.3c4.2-2.2,9.3-2.7,14.5-1.2
		C261.2,137,269.2,140.8,269.2,140.8z"/>
</g>
<circle class="st4" cx="248.6" cy="140.7" r="1.4"/>
</svg>
