<?xml version="1.0" encoding="UTF-8" standalone="no"?>
<!-- Created with Inkscape (http://www.inkscape.org/) -->

<svg
   xmlns:dc="http://purl.org/dc/elements/1.1/"
   xmlns:cc="http://creativecommons.org/ns#"
   xmlns:rdf="http://www.w3.org/1999/02/22-rdf-syntax-ns#"
   xmlns:svg="http://www.w3.org/2000/svg"
   xmlns="http://www.w3.org/2000/svg"
   xmlns:sodipodi="http://sodipodi.sourceforge.net/DTD/sodipodi-0.dtd"
   xmlns:inkscape="http://www.inkscape.org/namespaces/inkscape"
   version="1.1"
   id="svg2"
   xml:space="preserve"
   width="577.33386"
   height="135.75053"
   viewBox="0 0 577.33385 135.75053"
   sodipodi:docname="db_logo_long.svg"
   inkscape:version="0.92.1 r15371"><metadata
     id="metadata8"><rdf:RDF><cc:Work
         rdf:about=""><dc:format>image/svg+xml</dc:format><dc:type
           rdf:resource="http://purl.org/dc/dcmitype/StillImage" /><dc:title></dc:title></cc:Work></rdf:RDF></metadata><defs
     id="defs6"><clipPath
       clipPathUnits="userSpaceOnUse"
       id="clipPath18"><path
         d="M 0,1253.823 H 632.972 V 938.916 H 0 Z"
         id="path16"
         inkscape:connector-curvature="0" /></clipPath><clipPath
       clipPathUnits="userSpaceOnUse"
       id="clipPath32"><path
         d="M 0,1253.823 H 841.89 V 0 H 0 Z"
         id="path30"
         inkscape:connector-curvature="0" /></clipPath><clipPath
       clipPathUnits="userSpaceOnUse"
       id="clipPath40"><path
         d="M 0,664.018 H 1094.56 V 140.857 H 0 Z"
         id="path38"
         inkscape:connector-curvature="0" /></clipPath><clipPath
       clipPathUnits="userSpaceOnUse"
       id="clipPath44"><path
         d="M 78.832,469.402 H 633 V 154.492 H 78.832 Z"
         id="path42"
         inkscape:connector-curvature="0" /></clipPath><clipPath
       clipPathUnits="userSpaceOnUse"
       id="clipPath66"><path
         d="M 633,837.174 H 0 V 522.265 h 633 z"
         id="path64"
         inkscape:connector-curvature="0" /></clipPath><clipPath
       clipPathUnits="userSpaceOnUse"
       id="clipPath80"><path
         d="M 0,1253.823 H 841.89 V 0 H 0 Z"
         id="path78"
         inkscape:connector-curvature="0" /></clipPath><clipPath
       clipPathUnits="userSpaceOnUse"
       id="clipPath216"><path
         d="M 0,837.174 H 372.211 V 522.265 H 0 Z"
         id="path214"
         inkscape:connector-curvature="0" /></clipPath><clipPath
       clipPathUnits="userSpaceOnUse"
       id="clipPath240"><path
         d="M 0,1253.823 H 841.89 V 0 H 0 Z"
         id="path238"
         inkscape:connector-curvature="0" /></clipPath></defs><sodipodi:namedview
     pagecolor="#ffffff"
     bordercolor="#666666"
     borderopacity="1"
     objecttolerance="10"
     gridtolerance="10"
     guidetolerance="10"
     inkscape:pageopacity="0"
     inkscape:pageshadow="2"
     inkscape:window-width="1920"
     inkscape:window-height="983"
     id="namedview4"
     showgrid="false"
     fit-margin-top="0"
     fit-margin-left="0"
     fit-margin-right="0"
     fit-margin-bottom="0"
     inkscape:zoom="0.79857013"
     inkscape:cx="214.96501"
     inkscape:cy="-159.55669"
     inkscape:window-x="0"
     inkscape:window-y="27"
     inkscape:window-maximized="1"
     inkscape:current-layer="g10" /><g
     id="g10"
     inkscape:groupmode="layer"
     inkscape:label="DB_ooh"
     transform="matrix(1.3333333,0,0,-1.3333333,-133.3328,1526.6701)"><g
       id="g82"
       transform="translate(195.4209,1097.3596)"><path
         d="m 0,0 c 0,-26.312 -21.33,-47.645 -47.643,-47.645 -26.312,0 -47.643,21.333 -47.643,47.645 0,26.312 21.331,47.643 47.643,47.643 C -21.33,47.643 0,26.312 0,0"
         style="fill:#ffffff;fill-opacity:1;fill-rule:nonzero;stroke:none"
         id="path84"
         inkscape:connector-curvature="0" /></g><g
       id="g86"
       transform="translate(114.9146,1100.9788)"><path
         d="m 0,0 c 10.822,7.871 21.111,11.318 32.899,18.074 4.9,2.808 11.808,7.463 11.699,13.939 -0.114,6.712 -8.32,11.699 -15.684,11.699 -1.005,0 -2.301,-0.059 -3.331,-0.199 C 23.922,43.239 22.578,42.989 20.961,42.609 18.127,41.944 13.684,40.218 10.927,38.75 1.459,33.707 -6.808,26.197 -11.958,12.726 c -1.986,-5.199 -2.957,-11.082 -2.957,-16.97 0,-2.81 0.251,-5.558 0.706,-8.235 0.61,-2.727 1.39,-5.728 2.644,-8.449 C -12.868,-10.124 -6.503,-4.73 0,0"
         style="fill:#034a80;fill-opacity:1;fill-rule:nonzero;stroke:none"
         id="path88"
         inkscape:connector-curvature="0" /></g><g
       id="g90"
       transform="translate(195.4468,1097.3596)"><path
         d="m 0,0 c 0,0.583 -0.023,1.16 -0.044,1.738 -7.795,-8.899 -19.609,-14.89 -29.24,-19.509 l -0.013,0.019 c 0,0 -30.567,-15.553 -38.343,-25.531 6.077,-2.809 12.838,-4.387 19.972,-4.387 C -21.341,-47.67 0,-26.326 0,0"
         style="fill:#b10c1a;fill-opacity:1;fill-rule:nonzero;stroke:none"
         id="path92"
         inkscape:connector-curvature="0" /></g><g
       id="g94"
       transform="translate(179.9956,1132.4866)"><path
         d="m 0,0 c -1.256,1.108 -2.548,2.179 -3.878,3.201 -1.455,1.077 -2.977,2.066 -4.553,2.975 4.154,-2.884 8.056,-6.143 8.707,-12.001 1.238,-11.157 -6.884,-17.808 -13.693,-22.903 -6.217,-4.653 -18.778,-10.926 -18.778,-10.926 0,0 -11.223,-5.45 -20.689,-12.048 -3.795,-2.645 -15.178,-11.128 -10.392,-18.838 2.394,-3.857 9.307,-7.276 14.015,-9.107 1.163,3.916 16.361,14.561 33.594,22.222 13.634,6.062 28.88,14.322 31.118,22.298 C 15.451,-21.224 9.496,-8.714 0,0"
         style="fill:#008733;fill-opacity:1;fill-rule:nonzero;stroke:none"
         id="path96"
         inkscape:connector-curvature="0" /></g><g
       id="g98"
       transform="translate(523.667,1122.3435)"><path
         d="m 0,0 v 0.949 c -0.838,0.072 -1.678,0.108 -2.298,0.108 -3.135,0 -3.644,-0.983 -3.644,-2.04 0,-1.533 1.092,-1.86 2.405,-1.86 C -1.642,-2.843 0,-2.15 0,0 m 9.333,-6.49 c -0.838,-0.182 -3.1,-0.438 -4.302,-0.438 -2.625,0 -3.901,1.021 -4.339,2.516 -0.875,-1.421 -2.66,-2.697 -6.125,-2.697 -4.412,0 -6.853,1.896 -6.853,5.796 0,4.778 3.608,6.126 9.041,6.126 1.057,0 2.042,-0.038 3.245,-0.11 v 0.911 c 0,0.84 -0.256,2.188 -3.428,2.188 -1.714,0 -5.141,-0.583 -7.181,-1.312 l -0.51,4.995 c 2.697,0.765 5.795,1.095 8.53,1.095 5.506,0 8.787,-1.351 8.787,-6.71 v -6.636 c 0,-1.021 0.582,-1.24 1.167,-1.24 0.51,0 1.349,0.111 1.859,0.256 z M -15.61,-6.744 h -6.199 v 7.181 h -6.087 v -7.181 h -6.2 v 18.958 h 6.2 V 4.923 h 6.087 v 7.291 h 6.199 z M -38.622,12.214 V -6.744 h -6.197 v 6.562 c -1.13,-0.584 -3.172,-1.239 -5.506,-1.239 -2.698,0 -6.271,1.203 -6.271,6.526 v 7.109 h 6.125 V 5.98 c 0,-1.714 0.657,-2.661 2.297,-2.661 1.605,0 2.953,0.583 3.355,0.765 v 8.13 z m -21.626,0 V -6.744 h -5.433 l -0.363,2.624 c -1.349,-1.933 -3.101,-2.989 -5.871,-2.989 -3.243,0 -6.781,0.875 -6.781,7.109 v 12.214 h 6.198 V 0.765 c 0,-2.334 1.131,-3.135 2.589,-3.135 2.369,0 3.464,2.116 3.464,4.594 v 9.99 z M -82.933,5.213 V -6.744 h -6.199 V 5.105 c 0,1.349 -0.473,2.735 -2.405,2.735 -2.516,0 -2.808,-2.407 -2.808,-3.682 V -6.744 h -6.199 V 5.069 c 0,1.275 -0.437,2.771 -2.369,2.771 -2.079,0 -2.844,-1.678 -2.844,-3.465 V -6.744 h -6.198 v 18.958 h 5.396 l 0.364,-2.661 c 0.876,1.604 2.444,3.027 5.177,3.027 2.042,0 3.975,-0.804 5.033,-3.319 1.167,1.75 2.988,3.319 6.416,3.319 3.209,0 6.636,-1.351 6.636,-7.367 M -123.664,0 v 0.949 c -0.837,0.072 -1.677,0.108 -2.297,0.108 -3.135,0 -3.645,-0.983 -3.645,-2.04 0,-1.533 1.092,-1.86 2.405,-1.86 1.896,0 3.537,0.693 3.537,2.843 m 9.333,-6.49 c -0.837,-0.182 -3.098,-0.438 -4.301,-0.438 -2.626,0 -3.901,1.021 -4.34,2.516 -0.875,-1.421 -2.66,-2.697 -6.124,-2.697 -4.412,0 -6.854,1.896 -6.854,5.796 0,4.778 3.609,6.126 9.041,6.126 1.058,0 2.042,-0.038 3.245,-0.11 v 0.911 c 0,0.84 -0.255,2.188 -3.428,2.188 -1.713,0 -5.139,-0.583 -7.182,-1.312 l -0.511,4.995 c 2.699,0.765 5.798,1.095 8.532,1.095 5.506,0 8.788,-1.351 8.788,-6.71 v -6.636 c 0,-1.021 0.582,-1.24 1.166,-1.24 0.51,0 1.35,0.111 1.86,0.256 z m -30.304,9.297 c 0,3.281 -1.493,5.033 -4.082,5.033 -2.407,0 -4.011,-1.788 -4.011,-5.033 0,-3.427 1.604,-5.177 4.011,-5.177 2.625,0 4.082,1.75 4.082,5.177 m 6.308,0 c 0,-5.323 -2.697,-9.916 -8.603,-9.916 -2.99,0 -4.667,1.13 -5.652,2.333 v -8.168 h -6.198 v 25.158 h 5.323 l 0.51,-2.405 c 1.35,2.005 3.684,2.771 6.051,2.771 6.018,0 8.569,-4.778 8.569,-9.773 m -29.646,1.932 6.599,-11.483 h -6.926 l -3.756,7.036 -2.188,-2.37 v -4.666 h -6.198 v 26.687 h 6.198 V 4.959 l 6.38,7.255 h 6.783 z m -22.501,-2.04 c 0,3.389 -1.239,5.141 -3.974,5.141 -2.734,0 -3.974,-1.752 -3.974,-5.141 0,-3.282 1.24,-5.069 3.974,-5.069 2.735,0 3.974,1.787 3.974,5.069 m -14.255,0.072 c 0,6.272 3.937,9.809 10.281,9.809 6.344,0 10.281,-3.537 10.281,-9.809 0,-6.27 -3.973,-9.88 -10.281,-9.88 -6.307,0 -10.281,3.61 -10.281,9.88 m -3.434,9.443 V -6.744 h -6.125 v 5.323 c 0,2.516 0.144,4.629 0.364,6.818 h -0.145 l -4.158,-10.756 h -4.593 l -4.156,10.756 h -0.146 c 0.146,-2.006 0.183,-4.74 0.183,-6.818 v -5.323 h -5.762 v 18.958 h 8.495 l 3.975,-10.026 4.01,10.026 z M -242.04,4.739 c 0,1.896 -0.984,3.391 -3.244,3.391 -1.823,0 -3.245,-0.692 -3.757,-3.391 z m 5.616,-3.9 h -12.798 c 0.037,-2.661 2.115,-3.463 5.031,-3.463 2.407,0 5.287,0.802 6.854,1.457 l 0.365,-4.74 c -2.479,-0.875 -4.921,-1.202 -7.876,-1.202 -7.036,0 -10.681,3.536 -10.681,9.734 0,5.98 3.645,9.955 10.062,9.955 5.542,0 9.224,-3.137 9.224,-9.08 0,-1.348 -0.181,-2.661 -0.181,-2.661 m -31.473,13.709 h -7 c 0,-13.673 -2.187,-16.225 -2.187,-16.225 h 9.187 z m 10.246,-16.225 v -9.806 h -5.214 l -0.256,4.739 h -18.339 l -0.255,-4.739 h -5.214 v 9.806 h 3.1 c 0,0 2.771,2.442 2.771,20.453 h 19.724 V -1.677 Z"
         style="fill:#034a80;fill-opacity:1;fill-rule:nonzero;stroke:none"
         id="path100"
         inkscape:connector-curvature="0" /></g><g
       id="g102"
       transform="translate(408.4336,1092.2937)"><path
         d="m 0,0 h -3.5 c -1.823,0 -2.952,-0.768 -2.952,-2.334 0,-1.569 1.129,-2.334 2.915,-2.334 H 0 Z M 6.199,3.972 V -14.986 H 0 v 6.344 h -2.733 l -3.284,-6.344 h -6.634 l 4.01,6.889 c -2.187,0.913 -3.645,2.882 -3.645,5.763 0,3.826 2.589,6.306 6.635,6.306 z m -22.209,0 v -18.958 h -5.434 l -0.364,2.626 c -1.35,-1.935 -3.1,-2.992 -5.869,-2.992 -3.245,0 -6.782,0.877 -6.782,7.109 V 3.972 h 6.197 V -7.475 c 0,-2.334 1.131,-3.137 2.589,-3.137 2.369,0 3.464,2.116 3.464,4.595 V 3.972 Z M -44.2,-5.435 c 0,3.281 -1.495,5.033 -4.084,5.033 -2.405,0 -4.01,-1.788 -4.01,-5.033 0,-3.425 1.605,-5.177 4.01,-5.177 2.627,0 4.084,1.752 4.084,5.177 m 6.308,0 c 0,-5.321 -2.698,-9.917 -8.605,-9.917 -2.99,0 -4.666,1.131 -5.65,2.334 v -8.166 h -6.199 V 3.972 h 5.323 l 0.51,-2.406 c 1.35,2.006 3.682,2.769 6.052,2.769 6.017,0 8.569,-4.775 8.569,-9.77 m -32.164,-2.808 v 0.95 c -0.837,0.074 -1.676,0.109 -2.297,0.109 -3.134,0 -3.644,-0.984 -3.644,-2.042 0,-1.53 1.092,-1.859 2.406,-1.859 1.895,0 3.535,0.692 3.535,2.842 m 9.335,-6.487 c -0.839,-0.184 -3.1,-0.438 -4.302,-0.438 -2.626,0 -3.902,1.019 -4.339,2.514 -0.875,-1.421 -2.662,-2.698 -6.125,-2.698 -4.412,0 -6.854,1.896 -6.854,5.799 0,4.775 3.609,6.124 9.04,6.124 1.058,0 2.043,-0.036 3.245,-0.108 v 0.909 c 0,0.839 -0.254,2.188 -3.427,2.188 -1.713,0 -5.139,-0.583 -7.183,-1.313 l -0.51,4.998 c 2.698,0.765 5.798,1.09 8.532,1.09 5.507,0 8.788,-1.346 8.788,-6.705 v -6.638 c 0,-1.019 0.582,-1.239 1.167,-1.239 0.509,0 1.347,0.108 1.859,0.256 z m -40.803,4.993 c 0,3.902 3.099,5.033 6.161,5.834 2.224,0.584 4.048,1.275 4.01,2.516 -0.034,0.801 -0.655,1.313 -2.661,1.313 -2.443,-0.038 -4.484,-0.913 -5.869,-1.387 l -0.438,4.558 c 1.787,0.693 4.814,1.238 7.219,1.238 4.082,0 8.385,-1.238 8.422,-5.722 0.037,-4.376 -4.193,-5.433 -6.854,-6.088 -2.224,-0.547 -3.245,-1.095 -3.245,-2.262 0,-0.875 0.693,-1.239 2.733,-1.239 3.026,0 5.507,1.239 6.672,1.677 l 0.366,-4.594 c -1.933,-0.875 -4.704,-1.459 -7.911,-1.459 -4.267,0 -8.605,1.167 -8.605,5.615 m -7.552,-5.249 -4.157,13.635 -4.229,-13.635 h -6.381 l 6.635,18.958 h 8.095 l 6.599,-18.958 z m -21.954,8.056 c 0,3.063 -1.167,4.596 -3.355,4.596 -2.224,0 -3.464,-1.533 -3.464,-4.596 0,-3.025 1.24,-4.593 3.464,-4.593 2.188,0 3.355,1.714 3.355,4.593 m 6.234,0.075 c 0,-6.017 -4.083,-8.497 -9.516,-8.497 -5.25,0 -9.625,2.042 -9.625,8.86 v 6.344 h -5.031 v 4.12 h 11.229 v -4.811 c 1.167,1.42 2.953,2.331 5.323,2.331 3.682,0 7.62,-2.042 7.62,-8.347 m -35.043,-3.028 c 2.15,0 3.244,1.205 3.244,3.063 0,1.859 -1.094,3.099 -3.244,3.099 h -5.579 v -6.162 z m -12.142,20.419 h 19.397 V 5.358 h -12.834 V 1.384 h 7.146 c 4.485,0 8.13,-2.479 8.13,-8.058 0,-5.579 -3.682,-8.312 -8.13,-8.312 h -13.709 z"
         style="fill:#034a80;fill-opacity:1;fill-rule:nonzero;stroke:none"
         id="path104"
         inkscape:connector-curvature="0" /></g><g
       id="g106"
       transform="translate(247.3247,1052.9138)"><path
         d="M 0,0 C 0,3.969 -1.458,5.591 -3.504,5.591 -5.55,5.591 -6.989,3.969 -6.989,0 c 0,-3.971 1.439,-5.591 3.485,-5.591 C -1.458,-5.591 0,-3.971 0,0 m -9.257,0 c 0,4.659 2.025,7.292 5.753,7.292 3.747,0 5.773,-2.633 5.773,-7.292 0,-4.661 -2.026,-7.294 -5.773,-7.294 -3.728,0 -5.753,2.633 -5.753,7.294"
         style="fill:#034a80;fill-opacity:1;fill-rule:nonzero;stroke:none"
         id="path108"
         inkscape:connector-curvature="0" /></g><g
       id="g110"
       transform="translate(262.8008,1047.4231)"><path
         d="M 0,0 C 1.742,0 2.754,1.095 2.754,2.816 2.754,4.599 1.681,5.55 -0.06,5.55 H -2.593 V 0 Z M -4.659,12.58 H 3.768 V 10.979 H -2.593 V 7.151 h 3.12 c 2.755,0 4.294,-1.823 4.294,-4.335 0,-2.572 -1.56,-4.416 -4.234,-4.416 h -5.246 z"
         style="fill:#034a80;fill-opacity:1;fill-rule:nonzero;stroke:none"
         id="path112"
         inkscape:connector-curvature="0" /></g><g
       id="g114"
       transform="translate(284.3149,1058.3215)"><path
         d="m 0,0 h -6.057 v -4.74 h 5.266 v -1.661 h -5.266 v -4.416 h 6.219 v -1.682 H -8.204 V 1.681 H 0 Z"
         style="fill:#034a80;fill-opacity:1;fill-rule:nonzero;stroke:none"
         id="path116"
         inkscape:connector-curvature="0" /></g><g
       id="g118"
       transform="translate(300.6016,1058.5657)"><path
         d="m 0,0 h -4.254 c 0,-8.975 -1.277,-11.102 -1.277,-11.102 H 0 Z m 3.808,-11.102 v -4.274 H 2.167 l -0.101,2.633 h -9.521 l -0.08,-2.633 h -1.642 v 4.274 h 1.479 c 0,0 1.479,1.946 1.479,12.539 h 8.285 v -12.539 z"
         style="fill:#034a80;fill-opacity:1;fill-rule:nonzero;stroke:none"
         id="path120"
         inkscape:connector-curvature="0" /></g><g
       id="g122"
       transform="translate(322.3774,1060.0027)"><path
         d="m 0,0 v -14.18 h -2.045 v 6.888 l 0.02,3.726 -5.774,-10.614 H -9.824 V 0 h 2.025 V -7.374 L -7.818,-10.573 -2.005,0 Z"
         style="fill:#034a80;fill-opacity:1;fill-rule:nonzero;stroke:none"
         id="path124"
         inkscape:connector-curvature="0" /></g><g
       id="g126"
       transform="translate(341.3984,1045.823)"><path
         d="m 0,0 h -2.147 v 6.138 h -5.55 V 0 h -2.147 v 14.18 h 2.147 V 7.86 h 5.55 v 6.32 H 0 Z"
         style="fill:#034a80;fill-opacity:1;fill-rule:nonzero;stroke:none"
         id="path128"
         inkscape:connector-curvature="0" /></g><g
       id="g130"
       transform="translate(358.8003,1058.3215)"><path
         d="m 0,0 h -6.057 v -4.74 h 5.266 v -1.661 h -5.266 v -4.416 h 6.219 v -1.682 H -8.204 V 1.681 H 0 Z"
         style="fill:#034a80;fill-opacity:1;fill-rule:nonzero;stroke:none"
         id="path132"
         inkscape:connector-curvature="0" /></g><g
       id="g134"
       transform="translate(377.1328,1045.823)"><path
         d="m 0,0 h -2.147 v 6.138 h -5.55 V 0 h -2.147 v 14.18 h 2.147 V 7.86 h 5.55 v 6.32 H 0 Z"
         style="fill:#034a80;fill-opacity:1;fill-rule:nonzero;stroke:none"
         id="path136"
         inkscape:connector-curvature="0" /></g><g
       id="g138"
       transform="translate(396.1343,1060.0027)"><path
         d="m 0,0 v -14.18 h -2.045 v 6.888 l 0.02,3.726 -5.774,-10.614 H -9.824 V 0 h 2.025 V -7.374 L -7.819,-10.573 -2.004,0 Z"
         style="fill:#034a80;fill-opacity:1;fill-rule:nonzero;stroke:none"
         id="path140"
         inkscape:connector-curvature="0" /></g><g
       id="g142"
       transform="translate(413.5151,1058.3215)"><path
         d="m 0,0 h -6.057 v -4.74 h 5.266 v -1.661 h -5.266 v -4.416 h 6.219 v -1.682 H -8.204 V 1.681 H 0 Z"
         style="fill:#034a80;fill-opacity:1;fill-rule:nonzero;stroke:none"
         id="path144"
         inkscape:connector-curvature="0" /></g></g></svg>